<?xml version="1.0" encoding="UTF-8"?><svg id="Layer_1" xmlns="http://www.w3.org/2000/svg" viewBox="0 0 923.73 360.48"><defs>
<style>.cls-1{fill:#ffba09;}.cls-2{fill:#ff3131;}.txt{fill:#181818;}</style></defs>
<path class="txt" d="M72.16,340.24c-16.33,0-33.63-4.57-33.63-15.02,0-2.29.65-3.27,2.29-3.27,3.59,0,10.45,5.55,21.22,5.55s15.67-5.88,15.67-12.73c0-3.27-1.31-7.18-4.9-9.8-8.49-6.2-20.9-1.63-20.9-7.84,0-2.61,4.57-12.41,8.49-24.82-34.94-8.49-51.92-39.18-51.92-70.53,0-44.08,31.02-91.75,95.67-91.75,33.63,0,49.63,11.43,49.63,35.92,0,8.82-2.29,24.16-9.47,24.16-1.63,0-3.59-.98-4.25-2.94-9.47-20.57-25.47-34.61-48.33-34.61-30.37,0-45.71,25.14-45.71,51.26,0,28.41,17.96,57.79,54.2,57.79,14.37,0,32.98-7.18,45.39-19.92,1.31-1.31,3.27-1.96,4.9-1.96,2.61,0,3.92,1.96,3.92,3.92,0,1.31,0,2.29-.33,3.26-12.41,29.39-39.51,46.04-68.24,47.67-1.63,5.55-3.27,10.78-3.27,11.75,0,.33.65.98,2.29.98,11.75,0,26.77,7.18,26.77,24.16,0,19.59-21.88,28.73-39.51,28.73Z"/>
<path class="txt" d="M323.58,157.06c0,9.47-4.57,20.24-16.98,23.84-19.92,7.51-71.18,13.39-91.1,13.39-1.31,0-1.96.65-1.96,1.96.98,6.53,3.27,12.73,5.88,18.29,10.77,18.61,29.06,28.08,50.61,28.08,17.63,0,35.26-6.86,48.33-20.57.98-1.31,2.61-2.29,4.24-2.29,2.29,0,4.57,1.63,4.57,4.25,0,.65,0,1.63-.33,2.61-12.73,30.69-44.73,48.98-77.06,48.98-43.75-.33-73.47-31.67-73.47-73.79,0-48.65,37.55-91.75,88.81-91.75,35.26,0,58.45,21.88,58.45,47.02ZM210.93,167.51c-.65,3.27-.98,8.82-.98,12.08,0,1.31.98,1.96,2.61,1.96,14.69,0,70.86-10.12,70.86-15.67,0-11.43-12.08-32.98-34.94-32.98-20.9,0-33.63,15.35-37.55,34.61Z"/>
<path class="txt" d="M402.6,340.56c-16.33,0-33.63-4.57-33.63-15.02,0-2.29.65-3.27,2.29-3.27,3.59,0,10.45,5.55,21.22,5.55s15.67-5.88,15.67-12.73c0-3.26-1.31-7.18-4.9-9.79-8.49-6.2-20.9-1.63-20.9-7.84,0-2.61,3.92-11.1,7.51-22.2-32.65-1.96-38.86-16-38.86-39.18,0-3.59,0-12.08.33-16.33,0-2.61,1.96-3.92,4.57-3.92,2.29,0,3.59,1.31,3.92,2.29,12.41,23.18,38.86,36.57,61.06,36.57,12.73,0,22.2-5.88,22.2-16.65,0-15.02-17.96-19.92-35.92-26.78-19.27-7.18-38.86-14.69-47.35-31.02-2.61-5.55-4.25-12.08-4.25-18.29,0-7.18,1.96-14.69,5.88-21.22,11.43-18.94,37.88-30.69,65.63-30.69,36.24,0,43.1,12.08,43.1,31.35,0,6.53-1.31,16.33-1.63,21.22,0,2.29-1.31,3.92-4.24,3.92-1.96,0-3.59-1.63-4.25-2.94-9.47-20.57-31.35-32.98-51.92-32.98-13.06,0-22.86,6.2-22.86,17.31,0,12.73,20.9,19.59,37.22,25.14,20.57,6.86,40.16,15.02,48,32.33,2.29,5.22,2.94,11.1,2.94,16.98,0,7.84-1.96,15.02-5.55,21.22-10.12,16.65-30.04,27.1-51.26,30.37-1.63,5.88-3.59,11.75-3.59,12.73,0,.33.65.98,2.29.98,11.75,0,26.77,7.18,26.77,24.16,0,19.59-21.88,28.73-39.51,28.73Z"/>
<path class="txt" d="M626.6,110.04c36.9,0,49.3,26.12,49.3,56.49l-2.29,62.37c0,16.65,1.31,29.39,17.63,32.33,2.94.33,4.57,2.29,4.57,5.22,0,3.59-2.61,5.55-5.55,5.55h-80c-2.94,0-5.22-1.63-5.22-4.9s1.96-5.22,4.9-5.88c18.29-4.57,20.24-18.29,20.9-35.59l1.63-44.41c0-18.29-3.59-41.14-27.75-41.14-27.75,0-36.24,29.06-37.22,54.86l-1.31,36.24c0,16,2.29,27.1,17.63,30.04,2.94.33,4.57,2.29,4.57,5.22,0,3.59-2.61,5.55-5.22,5.55h-80.32c-2.94,0-5.22-1.63-5.22-4.9s1.63-5.22,4.57-5.88c18.61-4.9,20.9-18.61,21.55-35.59l2.29-64c0-12.41-8.16-17.63-24.49-17.63-.98-1.31-1.96-3.27-1.96-5.22,0-3.27,1.96-6.53,6.86-7.51,12.41-1.96,28.08-8.49,37.88-14.37,4.57-3.27,8.82-5.88,14.69-5.88,4.25,0,7.51,1.31,10.12,4.57l-2.61,35.59c0,.98.33,1.31.65,1.31s.65-.33.98-.98c11.1-25.8,33.31-41.47,58.45-41.47Z"/>
<path class="txt" d="M743.82,160c0-12.41-7.84-17.63-24.16-17.63-1.31-.98-2.29-3.27-2.29-5.22,0-3.27,1.96-6.53,6.86-7.18,12.73-1.96,27.75-8.49,37.88-15.02,4.9-2.61,9.14-5.55,14.69-5.55,4.25,0,8.82,1.31,11.1,4.57l-3.92,117.22c0,13.71,1.31,26.78,18.29,30.04,2.61.33,4.25,2.29,4.25,5.22,0,3.59-2.61,5.55-5.22,5.55h-81.3c-2.29,0-4.57-1.63-4.57-4.9s1.63-5.22,4.25-5.88c18.61-3.92,21.22-16.65,21.88-35.59l2.29-65.63ZM791.82,54.85c0,16.98-10.45,26.45-27.1,26.45-17.63,0-24.82-9.14-24.82-22.86,0-16.98,10.12-26.45,26.78-26.45,17.63,0,25.14,9.14,25.14,22.86Z"/>
<path class="cls-1" d="M898.59,242.61c0,17.96-10.77,28.73-29.39,28.73s-26.45-10.12-26.45-24.82c0-17.96,11.43-28.41,29.39-28.41s26.45,9.79,26.45,24.49Z"/>
<path class="cls-2" d="M791.72,56.08c-.41,18.2-12.88,25.26-26.87,25.25-18.36-.02-25.69-9.82-24.9-24.66.71-13.28,8.13-24.66,25.61-24.66,21.21,0,26.46,10.66,26.16,24.08Z"/></svg>