<svg xmlns="http://www.w3.org/2000/svg" xmlns:xlink="http://www.w3.org/1999/xlink" width="500" zoomAndPan="magnify" viewBox="0 0 375 374.999991" height="500" preserveAspectRatio="xMidYMid meet" version="1.0"><defs><g/><clipPath id="cee226ca06"><path d="M 42 78 L 332 78 L 332 337 L 42 337 Z M 42 78 " clip-rule="nonzero"/></clipPath><clipPath id="a29be359e0"><path d="M 69.953125 18.019531 L 356.414062 64.773438 L 308.449219 358.636719 L 21.992188 311.882812 Z M 69.953125 18.019531 " clip-rule="nonzero"/></clipPath><clipPath id="c816d00ecf"><path d="M 69.953125 18.019531 L 356.414062 64.773438 L 308.449219 358.636719 L 21.992188 311.882812 Z M 69.953125 18.019531 " clip-rule="nonzero"/></clipPath><clipPath id="53406bdfd2"><path d="M 117 28 L 274 28 L 274 140 L 117 140 Z M 117 28 " clip-rule="nonzero"/></clipPath><clipPath id="daf605892a"><path d="M 69.953125 18.019531 L 356.414062 64.773438 L 308.449219 358.636719 L 21.992188 311.882812 Z M 69.953125 18.019531 " clip-rule="nonzero"/></clipPath><clipPath id="e71f31850b"><path d="M 69.953125 18.019531 L 356.414062 64.773438 L 308.449219 358.636719 L 21.992188 311.882812 Z M 69.953125 18.019531 " clip-rule="nonzero"/></clipPath><clipPath id="8c0868a130"><path d="M 46 75 L 328 75 L 328 325 L 46 325 Z M 46 75 " clip-rule="nonzero"/></clipPath><clipPath id="5b41294007"><path d="M 73.515625 16.128906 L 351.089844 61.433594 L 304.457031 347.152344 L 26.878906 301.847656 Z M 73.515625 16.128906 " clip-rule="nonzero"/></clipPath><clipPath id="2faab6399c"><path d="M 73.515625 16.128906 L 351.089844 61.433594 L 304.457031 347.152344 L 26.878906 301.847656 Z M 73.515625 16.128906 " clip-rule="nonzero"/></clipPath><clipPath id="28949f72b3"><path d="M 119 26 L 272 26 L 272 134 L 119 134 Z M 119 26 " clip-rule="nonzero"/></clipPath><clipPath id="3a3adff9c0"><path d="M 73.515625 16.128906 L 351.089844 61.433594 L 304.457031 347.152344 L 26.878906 301.847656 Z M 73.515625 16.128906 " clip-rule="nonzero"/></clipPath><clipPath id="07473a796b"><path d="M 73.515625 16.128906 L 351.089844 61.433594 L 304.457031 347.152344 L 26.878906 301.847656 Z M 73.515625 16.128906 " clip-rule="nonzero"/></clipPath></defs><g clip-path="url(#cee226ca06)"><g clip-path="url(#a29be359e0)"><g clip-path="url(#c816d00ecf)"><path fill="#000000" d="M 238.613281 89.902344 C 233 88.988281 227.472656 88.640625 222.101562 88.695312 C 215.546875 86.75 200.011719 83.148438 193.054688 82.015625 C 123.789062 70.710938 58.945312 86.789062 44.109375 177.703125 C 32.050781 251.574219 79.902344 320.859375 161.058594 334.105469 C 242.210938 347.351562 317.765625 298.207031 329.824219 224.335938 C 344.824219 132.375 272.097656 95.367188 238.613281 89.902344 Z M 238.613281 89.902344 " fill-opacity="1" fill-rule="nonzero"/></g></g></g><g clip-path="url(#53406bdfd2)"><g clip-path="url(#daf605892a)"><g clip-path="url(#e71f31850b)"><path fill="#000000" d="M 130.722656 28.207031 C 141.921875 43.765625 150.34375 50.429688 150.9375 72.714844 C 151.285156 85.898438 167.449219 88.082031 167.449219 88.082031 C 167.449219 88.082031 133.1875 97.289062 117.621094 108.484375 C 117.621094 108.484375 159.945312 101.65625 173.328125 103.839844 C 173.328125 103.839844 197.898438 121.589844 195.71875 134.960938 C 195.71875 134.960938 200.085938 108.207031 186.710938 106.023438 C 186.710938 106.023438 226.839844 112.574219 222.472656 139.328125 C 222.472656 139.328125 229.023438 99.191406 215.640625 97.007812 C 215.640625 97.007812 257.972656 90.183594 269.171875 105.742188 C 269.171875 105.742188 257.683594 89.433594 231.207031 85.816406 C 231.207031 85.816406 246.78125 74.621094 273.539062 78.988281 C 273.539062 78.988281 232.324219 59.578125 214.574219 84.160156 C 214.574219 84.160156 205.101562 70.988281 231.441406 52.039062 C 231.441406 52.039062 195.445312 52.5 191.078125 79.265625 C 191.078125 79.265625 178.441406 76.867188 171.140625 65.445312 C 156.832031 43.035156 130.722656 28.207031 130.722656 28.207031 Z M 130.722656 28.207031 " fill-opacity="1" fill-rule="nonzero"/></g></g></g><g fill="#000624" fill-opacity="1"><g transform="translate(0.750004, 237.767747)"><g><path d="M 97.8125 -46.28125 C 98.71875 -47.632812 99.875 -48.113281 101.28125 -47.71875 C 102.6875 -47.332031 103.867188 -46.570312 104.828125 -45.4375 C 105.785156 -44.3125 105.984375 -43.1875 105.421875 -42.0625 C 99.554688 -30.125 92.878906 -20.519531 85.390625 -13.25 C 77.898438 -5.988281 69.257812 -1.289062 59.46875 0.84375 L 56.59375 4.21875 L 56.9375 5.0625 C 59.519531 4.050781 62.273438 3.65625 65.203125 3.875 C 68.140625 4.101562 70.648438 5.085938 72.734375 6.828125 C 74.816406 8.578125 75.859375 11.367188 75.859375 15.203125 C 75.859375 19.035156 74.867188 22.753906 72.890625 26.359375 C 70.921875 29.960938 68.019531 32.945312 64.1875 35.3125 C 60.363281 37.675781 55.75 38.859375 50.34375 38.859375 C 46.289062 38.859375 43.132812 38.066406 40.875 36.484375 C 38.625 34.910156 37.046875 32.941406 36.140625 30.578125 C 35.242188 28.210938 34.820312 25.898438 34.875 23.640625 C 34.9375 21.390625 35.25 19.59375 35.8125 18.25 C 36.488281 16.664062 37.414062 15.875 38.59375 15.875 C 39.78125 15.875 40.375 16.210938 40.375 16.890625 C 40.375 18.804688 41.242188 20.269531 42.984375 21.28125 C 44.734375 22.300781 46.679688 22.8125 48.828125 22.8125 C 51.078125 22.8125 53.128906 22.242188 54.984375 21.109375 C 56.847656 19.984375 57.78125 18.351562 57.78125 16.21875 C 57.78125 15.207031 57.46875 14.332031 56.84375 13.59375 C 56.226562 12.863281 55.300781 12.5 54.0625 12.5 C 52.59375 12.5 51.320312 12.722656 50.25 13.171875 C 49.1875 13.628906 48.257812 14.140625 47.46875 14.703125 C 46.457031 15.484375 45.472656 15.648438 44.515625 15.203125 C 43.554688 14.753906 43.019531 13.878906 42.90625 12.578125 C 42.789062 11.285156 43.351562 9.910156 44.59375 8.453125 L 50.171875 2.03125 L 47.46875 2.03125 C 39.476562 2.03125 32.328125 0.34375 26.015625 -3.03125 C 19.710938 -6.414062 14.726562 -11.679688 11.0625 -18.828125 C 7.40625 -25.984375 5.578125 -35.191406 5.578125 -46.453125 C 5.578125 -56.703125 7.347656 -66.472656 10.890625 -75.765625 C 14.441406 -85.054688 19.3125 -93.304688 25.5 -100.515625 C 31.695312 -107.722656 38.765625 -113.410156 46.703125 -117.578125 C 54.648438 -121.742188 62.957031 -123.828125 71.625 -123.828125 C 82.320312 -123.828125 90.347656 -121.628906 95.703125 -117.234375 C 101.054688 -112.847656 103.734375 -106.992188 103.734375 -99.671875 C 103.734375 -94.710938 102.773438 -90.148438 100.859375 -85.984375 C 98.941406 -81.816406 96.429688 -78.1875 93.328125 -75.09375 C 90.234375 -72 86.941406 -69.601562 83.453125 -67.90625 C 79.960938 -66.21875 76.640625 -65.375 73.484375 -65.375 C 71.117188 -65.375 69.375 -66.078125 68.25 -67.484375 C 67.125 -68.898438 67.007812 -70.507812 67.90625 -72.3125 C 72.300781 -80.644531 73.796875 -86.664062 72.390625 -90.375 C 70.984375 -94.09375 67.914062 -95.953125 63.1875 -95.953125 C 58.113281 -95.953125 53.519531 -94.375 49.40625 -91.21875 C 45.300781 -88.070312 42.066406 -83.988281 39.703125 -78.96875 C 37.335938 -73.957031 36.15625 -68.640625 36.15625 -63.015625 C 36.15625 -57.941406 37.363281 -53.320312 39.78125 -49.15625 C 42.207031 -44.988281 45.867188 -41.640625 50.765625 -39.109375 C 55.660156 -36.578125 61.828125 -35.3125 69.265625 -35.3125 C 74.554688 -35.3125 79.929688 -36.097656 85.390625 -37.671875 C 90.859375 -39.242188 95 -42.113281 97.8125 -46.28125 Z M 97.8125 -46.28125 "/></g></g></g><g fill="#000624" fill-opacity="1"><g transform="translate(94.672653, 237.767747)"><g><path d="M 31.765625 0 C 25.003906 0 19.453125 -1.519531 15.109375 -4.5625 C 10.773438 -7.601562 7.566406 -11.628906 5.484375 -16.640625 C 3.398438 -21.648438 2.382812 -27.164062 2.4375 -33.1875 C 2.5 -39.21875 3.539062 -45.242188 5.5625 -51.265625 C 7.59375 -57.296875 10.523438 -62.816406 14.359375 -67.828125 C 18.191406 -72.835938 22.835938 -76.863281 28.296875 -79.90625 C 33.753906 -82.945312 39.921875 -84.46875 46.796875 -84.46875 C 52.085938 -84.46875 56.394531 -83.484375 59.71875 -81.515625 C 63.039062 -79.546875 65.488281 -76.925781 67.0625 -73.65625 C 68.644531 -70.382812 69.4375 -66.894531 69.4375 -63.1875 C 69.4375 -59.125 68.304688 -55.066406 66.046875 -51.015625 C 63.796875 -46.960938 60.644531 -43.613281 56.59375 -40.96875 C 52.539062 -38.320312 47.753906 -37 42.234375 -37 C 39.867188 -37 37.554688 -37.164062 35.296875 -37.5 C 33.046875 -37.84375 30.96875 -38.578125 29.0625 -39.703125 C 28.5 -40.035156 27.878906 -40.0625 27.203125 -39.78125 C 26.523438 -39.5 26.1875 -38.796875 26.1875 -37.671875 C 26.1875 -34.742188 27.898438 -32.519531 31.328125 -31 C 34.765625 -29.476562 38.90625 -28.71875 43.75 -28.71875 C 49.5 -28.71875 55.441406 -30.179688 61.578125 -33.109375 C 67.710938 -36.035156 72.695312 -40.425781 76.53125 -46.28125 C 77.425781 -47.632812 78.601562 -48.113281 80.0625 -47.71875 C 81.53125 -47.332031 82.742188 -46.570312 83.703125 -45.4375 C 84.660156 -44.3125 84.800781 -43.1875 84.125 -42.0625 C 76.695312 -28.320312 68.5625 -17.875 59.71875 -10.71875 C 50.875 -3.570312 41.554688 0 31.765625 0 Z M 37.84375 -49.671875 C 41.101562 -49.671875 43.660156 -50.710938 45.515625 -52.796875 C 47.378906 -54.878906 48.3125 -56.988281 48.3125 -59.125 C 48.3125 -61.039062 47.664062 -62.671875 46.375 -64.015625 C 45.082031 -65.367188 43.140625 -66.046875 40.546875 -66.046875 C 37.273438 -66.046875 34.679688 -65.03125 32.765625 -63 C 30.859375 -60.976562 29.90625 -58.84375 29.90625 -56.59375 C 29.90625 -54.789062 30.550781 -53.1875 31.84375 -51.78125 C 33.132812 -50.375 35.132812 -49.671875 37.84375 -49.671875 Z M 37.84375 -49.671875 "/></g></g></g><g fill="#000624" fill-opacity="1"><g transform="translate(167.310652, 237.767747)"><g><path d="M 69.4375 -46.28125 C 70.332031 -47.632812 71.484375 -48.113281 72.890625 -47.71875 C 74.304688 -47.332031 75.488281 -46.570312 76.4375 -45.4375 C 77.394531 -44.3125 77.59375 -43.1875 77.03125 -42.0625 C 76.132812 -40.144531 74.8125 -37.46875 73.0625 -34.03125 C 71.320312 -30.601562 69.125 -26.945312 66.46875 -23.0625 C 63.820312 -19.175781 60.613281 -15.484375 56.84375 -11.984375 C 53.070312 -8.492188 48.734375 -5.648438 43.828125 -3.453125 C 38.929688 -1.265625 33.332031 -0.171875 27.03125 -0.171875 C 19.59375 -0.171875 13.707031 -1.742188 9.375 -4.890625 C 5.039062 -8.046875 2.082031 -12.046875 0.5 -16.890625 C -1.070312 -21.734375 -1.519531 -26.800781 -0.84375 -32.09375 C -0.164062 -37.382812 1.410156 -42.113281 3.890625 -46.28125 L 4.5625 -47.296875 C 7.601562 -51.359375 10.613281 -55.78125 13.59375 -60.5625 C 16.582031 -65.351562 19.648438 -69.859375 22.796875 -74.078125 C 25.953125 -78.304688 29.21875 -81.796875 32.59375 -84.546875 C 35.976562 -87.304688 39.472656 -88.6875 43.078125 -88.6875 C 48.367188 -88.6875 52.28125 -87.445312 54.8125 -84.96875 C 57.351562 -82.5 58.566406 -79.910156 58.453125 -77.203125 C 58.453125 -75.847656 57.859375 -74.71875 56.671875 -73.8125 C 55.492188 -72.914062 54.085938 -72.101562 52.453125 -71.375 C 50.816406 -70.644531 49.378906 -69.742188 48.140625 -68.671875 C 46.898438 -67.597656 46.28125 -66.21875 46.28125 -64.53125 C 46.28125 -63.519531 47.066406 -61.492188 48.640625 -58.453125 C 50.222656 -55.410156 51.914062 -52.003906 53.71875 -48.234375 C 55.519531 -44.460938 56.757812 -40.828125 57.4375 -37.328125 C 60.03125 -37.441406 62.253906 -38.34375 64.109375 -40.03125 C 65.972656 -41.726562 67.75 -43.8125 69.4375 -46.28125 Z M 20.953125 -34.96875 C 24.660156 -34.96875 27.53125 -36.148438 29.5625 -38.515625 C 31.59375 -40.878906 32.609375 -43.804688 32.609375 -47.296875 C 32.609375 -49.328125 32.296875 -51.410156 31.671875 -53.546875 C 31.054688 -55.691406 30.128906 -57.890625 28.890625 -60.140625 C 27.765625 -62.390625 26.410156 -62.390625 24.828125 -60.140625 C 22.691406 -56.984375 20.410156 -53.800781 17.984375 -50.59375 C 15.566406 -47.382812 13.398438 -44.539062 11.484375 -42.0625 C 11.484375 -40.039062 12.351562 -38.351562 14.09375 -37 C 15.84375 -35.644531 18.128906 -34.96875 20.953125 -34.96875 Z M 20.953125 -34.96875 "/></g></g></g><g fill="#000624" fill-opacity="1"><g transform="translate(230.661359, 237.767747)"><g><path d="M -27.203125 38.859375 C -31.253906 38.859375 -34.40625 38.066406 -36.65625 36.484375 C -38.90625 34.910156 -40.476562 32.941406 -41.375 30.578125 C -42.28125 28.210938 -42.707031 25.898438 -42.65625 23.640625 C -42.601562 21.390625 -42.296875 19.59375 -41.734375 18.25 C -41.054688 16.664062 -40.125 15.875 -38.9375 15.875 C -37.757812 15.875 -37.171875 16.210938 -37.171875 16.890625 C -37.171875 18.804688 -36.296875 20.269531 -34.546875 21.28125 C -32.796875 22.300781 -30.851562 22.8125 -28.71875 22.8125 C -26.46875 22.8125 -24.410156 22.242188 -22.546875 21.109375 C -20.691406 19.984375 -19.765625 18.351562 -19.765625 16.21875 C -19.765625 15.207031 -20.070312 14.332031 -20.6875 13.59375 C -21.3125 12.863281 -22.242188 12.5 -23.484375 12.5 C -24.941406 12.5 -26.207031 12.722656 -27.28125 13.171875 C -28.351562 13.628906 -29.285156 14.140625 -30.078125 14.703125 C -31.085938 15.484375 -32.070312 15.648438 -33.03125 15.203125 C -33.988281 14.753906 -34.519531 13.878906 -34.625 12.578125 C -34.738281 11.285156 -34.175781 9.910156 -32.9375 8.453125 L -15.71875 -11.828125 L -8.28125 -10.984375 L -20.953125 4.21875 L -20.609375 5.0625 C -18.015625 4.050781 -15.253906 3.65625 -12.328125 3.875 C -9.398438 4.101562 -6.894531 5.085938 -4.8125 6.828125 C -2.726562 8.578125 -1.6875 11.367188 -1.6875 15.203125 C -1.6875 19.035156 -2.671875 22.753906 -4.640625 26.359375 C -6.617188 29.960938 -9.519531 32.945312 -13.34375 35.3125 C -17.175781 37.675781 -21.796875 38.859375 -27.203125 38.859375 Z M -27.203125 38.859375 "/></g></g></g><g fill="#000624" fill-opacity="1"><g transform="translate(232.684854, 237.767747)"><g><path d="M 10.640625 0 C 6.703125 0 3.660156 -1.179688 1.515625 -3.546875 C -0.617188 -5.910156 -1.6875 -8.835938 -1.6875 -12.328125 C -1.6875 -16.273438 -1.234375 -21.203125 -0.328125 -27.109375 C 0.566406 -33.023438 1.972656 -39.414062 3.890625 -46.28125 C 5.796875 -52.925781 7.90625 -59.148438 10.21875 -64.953125 C 12.53125 -70.753906 14.894531 -75.457031 17.3125 -79.0625 C 19.738281 -82.664062 22.019531 -84.46875 24.15625 -84.46875 C 26.40625 -84.46875 27.894531 -83.816406 28.625 -82.515625 C 29.363281 -81.222656 29.734375 -79.734375 29.734375 -78.046875 C 29.734375 -74.785156 30.519531 -72.757812 32.09375 -71.96875 C 33.675781 -71.175781 35.816406 -72.132812 38.515625 -74.84375 C 41.671875 -77.882812 44.9375 -80.25 48.3125 -81.9375 C 51.695312 -83.625 55.242188 -84.46875 58.953125 -84.46875 C 64.140625 -84.46875 67.96875 -82.945312 70.4375 -79.90625 C 72.914062 -76.863281 74.15625 -73.203125 74.15625 -68.921875 C 74.15625 -65.992188 73.703125 -63.316406 72.796875 -60.890625 C 71.898438 -58.472656 71 -56.109375 70.09375 -53.796875 C 69.195312 -51.492188 68.75 -48.9375 68.75 -46.125 C 68.75 -40.488281 71.453125 -37.671875 76.859375 -37.671875 C 79.453125 -37.671875 81.617188 -38.488281 83.359375 -40.125 C 85.109375 -41.757812 86.828125 -43.8125 88.515625 -46.28125 C 89.421875 -47.632812 90.601562 -48.113281 92.0625 -47.71875 C 93.53125 -47.332031 94.742188 -46.570312 95.703125 -45.4375 C 96.660156 -44.3125 96.800781 -43.1875 96.125 -42.0625 C 95 -40.257812 93.644531 -37.640625 92.0625 -34.203125 C 90.488281 -30.773438 88.601562 -27.117188 86.40625 -23.234375 C 84.21875 -19.347656 81.65625 -15.628906 78.71875 -12.078125 C 75.789062 -8.523438 72.492188 -5.625 68.828125 -3.375 C 65.171875 -1.125 61.035156 0 56.421875 0 C 51.128906 0 47.410156 -1.742188 45.265625 -5.234375 C 43.128906 -8.722656 42.0625 -12.832031 42.0625 -17.5625 C 42.0625 -21.84375 42.648438 -25.925781 43.828125 -29.8125 C 45.015625 -33.695312 46.195312 -37.242188 47.375 -40.453125 C 48.5625 -43.671875 49.15625 -46.40625 49.15625 -48.65625 C 49.15625 -50.570312 48.5625 -52.035156 47.375 -53.046875 C 46.195312 -54.054688 44.648438 -54.5625 42.734375 -54.5625 C 39.472656 -54.5625 36.460938 -53.179688 33.703125 -50.421875 C 30.941406 -47.660156 28.71875 -44.082031 27.03125 -39.6875 C 25.34375 -35.300781 24.5 -30.578125 24.5 -25.515625 L 24.5 -17.90625 C 24.5 -15.09375 24.160156 -12.304688 23.484375 -9.546875 C 22.804688 -6.785156 21.484375 -4.503906 19.515625 -2.703125 C 17.546875 -0.898438 14.585938 0 10.640625 0 Z M 10.640625 0 "/></g></g></g><g fill="#000624" fill-opacity="1"><g transform="translate(317.316573, 237.767747)"><g><path d="M 33.953125 -91.390625 C 29.898438 -91.390625 26.410156 -92.257812 23.484375 -94 C 20.554688 -95.75 19.09375 -98.878906 19.09375 -103.390625 C 19.09375 -109.359375 20.753906 -113.441406 24.078125 -115.640625 C 27.398438 -117.835938 31.367188 -118.9375 35.984375 -118.9375 C 40.265625 -118.9375 43.894531 -117.976562 46.875 -116.0625 C 49.863281 -114.144531 51.132812 -110.539062 50.6875 -105.25 C 50.226562 -100.070312 48.421875 -96.46875 45.265625 -94.4375 C 42.117188 -92.40625 38.347656 -91.390625 33.953125 -91.390625 Z M 15.203125 0 C 9.566406 0 5.566406 -2.050781 3.203125 -6.15625 C 0.835938 -10.269531 -0.34375 -15.253906 -0.34375 -21.109375 C -0.34375 -25.054688 0.0507812 -29.222656 0.84375 -33.609375 C 1.632812 -38.003906 2.648438 -42.226562 3.890625 -46.28125 C 7.828125 -58.5625 11.65625 -67.992188 15.375 -74.578125 C 19.09375 -81.171875 23.375 -84.46875 28.21875 -84.46875 C 32.039062 -84.46875 33.953125 -81.929688 33.953125 -76.859375 C 33.953125 -73.484375 33.304688 -70.019531 32.015625 -66.46875 C 30.722656 -62.925781 29.457031 -59.4375 28.21875 -56 C 26.976562 -52.5625 26.359375 -49.320312 26.359375 -46.28125 C 26.359375 -43.46875 27.0625 -41.359375 28.46875 -39.953125 C 29.875 -38.546875 31.703125 -37.84375 33.953125 -37.84375 C 36.546875 -37.84375 38.710938 -38.628906 40.453125 -40.203125 C 42.203125 -41.785156 43.921875 -43.8125 45.609375 -46.28125 C 46.515625 -47.632812 47.671875 -48.140625 49.078125 -47.796875 C 50.484375 -47.460938 51.664062 -46.703125 52.625 -45.515625 C 53.582031 -44.335938 53.78125 -43.242188 53.21875 -42.234375 C 52.09375 -40.429688 50.769531 -37.835938 49.25 -34.453125 C 47.726562 -31.078125 45.894531 -27.414062 43.75 -23.46875 C 41.613281 -19.53125 39.164062 -15.785156 36.40625 -12.234375 C 33.644531 -8.691406 30.519531 -5.765625 27.03125 -3.453125 C 23.539062 -1.148438 19.597656 0 15.203125 0 Z M 15.203125 0 "/></g></g></g><g clip-path="url(#8c0868a130)"><g clip-path="url(#5b41294007)"><g clip-path="url(#2faab6399c)"><path fill="#ff3131" d="M 237.128906 85.859375 C 231.683594 84.972656 226.324219 84.632812 221.113281 84.6875 C 214.75 82.800781 199.679688 79.308594 192.933594 78.207031 C 125.738281 67.238281 62.835938 82.839844 48.441406 171.035156 C 36.746094 242.695312 83.167969 309.90625 161.894531 322.757812 C 240.617188 335.605469 313.914062 287.933594 325.613281 216.273438 C 340.164062 127.0625 269.613281 91.160156 237.128906 85.859375 Z M 237.128906 85.859375 " fill-opacity="1" fill-rule="nonzero"/></g></g></g><g clip-path="url(#28949f72b3)"><g clip-path="url(#3a3adff9c0)"><g clip-path="url(#07473a796b)"><path fill="#00944d" d="M 132.46875 26.007812 C 143.332031 41.101562 151.5 47.566406 152.078125 69.1875 C 152.414062 81.972656 168.09375 84.09375 168.09375 84.09375 C 168.09375 84.09375 134.859375 93.023438 119.757812 103.886719 C 119.757812 103.886719 160.8125 97.257812 173.796875 99.378906 C 173.796875 99.378906 197.632812 116.597656 195.515625 129.570312 C 195.515625 129.570312 199.753906 103.613281 186.777344 101.496094 C 186.777344 101.496094 225.707031 107.851562 221.472656 133.808594 C 221.472656 133.808594 227.828125 94.871094 214.84375 92.75 C 214.84375 92.75 255.910156 86.132812 266.773438 101.226562 C 266.773438 101.226562 255.628906 85.402344 229.945312 81.894531 C 229.945312 81.894531 245.054688 71.03125 271.011719 75.269531 C 271.011719 75.269531 231.03125 56.441406 213.808594 80.289062 C 213.808594 80.289062 204.621094 67.511719 230.171875 49.128906 C 230.171875 49.128906 195.253906 49.578125 191.015625 75.539062 C 191.015625 75.539062 178.757812 73.214844 171.675781 62.132812 C 157.792969 40.394531 132.46875 26.007812 132.46875 26.007812 Z M 132.46875 26.007812 " fill-opacity="1" fill-rule="nonzero"/></g></g></g><path stroke-linecap="butt" transform="matrix(1.246567, 0, 0, 1.246567, 11.784678, 88.522845)" fill="none" stroke-linejoin="miter" d="M 74.36714 73.831386 C 75.034598 72.806696 75.902608 72.440064 76.968034 72.734623 C 78.055395 73.026049 78.954741 73.599499 79.662936 74.458107 C 80.3962 75.313582 80.55288 76.17219 80.132977 77.027664 C 75.683255 86.096323 70.603678 93.40076 64.900514 98.937843 C 59.216151 104.456125 52.654379 108.019036 45.215196 109.626576 L 43.021671 112.196134 L 43.27236 112.854191 C 45.255933 112.083324 47.358583 111.779364 49.57091 111.945445 C 51.808305 112.11466 53.710404 112.854191 55.277208 114.17344 C 56.865946 115.508356 57.658749 117.642342 57.658749 120.565997 C 57.658749 123.470851 56.906683 126.291097 55.402552 129.029869 C 53.920356 131.768642 51.714297 134.034239 48.787508 135.83293 C 45.882654 137.628486 42.382416 138.527832 38.286791 138.527832 C 35.193922 138.527832 32.793579 137.919912 31.079496 136.71034 C 29.365413 135.519569 28.162108 134.024839 27.472714 132.226148 C 26.805256 130.430592 26.491895 128.675772 26.532632 126.961689 C 26.576503 125.269541 26.805256 123.900155 27.222026 122.85353 C 27.745338 121.66276 28.456667 121.067375 29.356012 121.067375 C 30.252224 121.067375 30.703463 121.330597 30.703463 121.850776 C 30.703463 123.292235 31.36152 124.401532 32.677635 125.175533 C 34.015685 125.9464 35.497881 126.334968 37.127357 126.334968 C 38.84144 126.334968 40.398842 125.905663 41.799565 125.050189 C 43.219089 124.191581 43.930417 122.947539 43.930417 121.318063 C 43.930417 120.544062 43.68913 119.876604 43.209688 119.312555 C 42.749048 118.770441 42.050253 118.497817 41.110171 118.497817 C 39.982073 118.497817 39.007521 118.663898 38.192783 118.999194 C 37.399981 119.353292 36.701186 119.741859 36.093267 120.158629 C 35.319266 120.763415 34.5672 120.888759 33.83707 120.534661 C 33.106939 120.199365 32.699571 119.541308 32.614963 118.560489 C 32.530356 117.57967 32.95966 116.533045 33.899742 115.426882 L 38.161447 110.535322 L 36.093267 110.535322 C 30.01407 110.535322 24.567861 109.250543 19.764042 106.680986 C 14.979024 104.111428 11.196761 100.109812 8.417251 94.676138 C 5.637742 89.242464 4.246421 82.251387 4.246421 73.706041 C 4.246421 65.909628 5.593872 58.482979 8.291907 51.41983 C 10.986809 44.35668 14.684465 38.086333 19.388009 32.611922 C 24.110354 27.137511 29.481356 22.822534 35.497881 19.666992 C 41.536342 16.489515 47.85996 14.900776 54.46247 14.900776 C 62.591046 14.900776 68.682777 16.574122 72.737665 19.91768 C 76.811354 23.239304 78.848198 27.679625 78.848198 33.238643 C 78.848198 37.020906 78.118068 40.49921 76.654673 43.676687 C 75.213214 46.832229 73.311115 49.589803 70.948375 51.952543 C 68.588769 54.293347 66.081884 56.110839 63.427719 57.405019 C 60.773554 58.680397 58.254134 59.316519 55.872593 59.316519 C 54.077036 59.316519 52.748387 58.783806 51.892912 57.718379 C 51.034304 56.634151 50.95283 55.408911 51.642224 54.052059 C 54.963847 47.71904 56.091945 43.143974 55.026519 40.323728 C 53.961093 37.481547 51.629689 36.058889 48.035442 36.058889 C 44.190507 36.058889 40.702802 37.262194 37.566062 39.665671 C 34.45439 42.066013 31.997643 45.171418 30.202086 48.972483 C 28.403396 52.776681 27.50405 56.822168 27.50405 61.105808 C 27.50405 64.969546 28.425331 68.49172 30.264758 71.669197 C 32.104185 74.824739 34.880561 77.36296 38.600152 79.283861 C 42.319743 81.207896 47.001352 82.169913 52.644978 82.169913 C 56.67793 82.169913 60.764153 81.571394 64.900514 80.380624 C 69.05881 79.171052 72.214352 76.986928 74.36714 73.831386 Z M 95.528387 108.999855 C 90.386138 108.999855 86.16517 107.849821 82.865482 105.552887 C 79.584596 103.234018 77.149783 100.172484 75.561044 96.368286 C 73.972306 92.545285 73.198305 88.343119 73.242175 83.768053 C 73.282912 79.189853 74.078848 74.614787 75.623717 70.036588 C 77.168585 65.461522 79.396579 61.271889 82.301433 57.467691 C 85.206286 53.644691 88.737861 50.583157 92.896157 48.283089 C 97.054453 45.96422 101.745463 44.804786 106.969185 44.804786 C 110.980202 44.804786 114.251688 45.556851 116.780508 47.060983 C 119.309329 48.546312 121.167558 50.529885 122.358328 53.017969 C 123.549099 55.502919 124.147618 58.157084 124.147618 60.980464 C 124.147618 64.073334 123.28901 67.153669 121.574927 70.224604 C 119.882779 73.298672 117.491837 75.846295 114.398967 77.873738 C 111.324899 79.879247 107.689915 80.882001 103.490882 80.882001 C 101.692192 80.882001 99.937372 80.756657 98.223289 80.505968 C 96.509206 80.236478 94.933002 79.672429 93.491543 78.81382 C 93.052838 78.563132 92.570262 78.553731 92.050083 78.782484 C 91.545573 78.992436 91.294884 79.525149 91.294884 80.380624 C 91.294884 82.596084 92.601598 84.288231 95.215026 85.4602 C 97.825321 86.610234 100.971462 87.183684 104.650316 87.183684 C 109.015431 87.183684 113.530958 86.077521 118.190631 83.862061 C 122.850305 81.624666 126.632568 78.281107 129.537422 73.831386 C 130.226815 72.806696 131.12616 72.440064 132.232323 72.734623 C 133.360422 73.026049 134.281702 73.599499 134.993031 74.458107 C 135.723161 75.313582 135.839105 76.17219 135.337728 77.027664 C 129.672167 87.47511 123.477026 95.415669 116.749172 100.849343 C 110.04012 106.283018 102.96757 108.999855 95.528387 108.999855 Z M 100.166125 71.261828 C 102.632274 71.261828 104.565709 70.465892 105.966431 68.877153 C 107.385955 67.288415 108.097284 65.680874 108.097284 64.051399 C 108.097284 62.60994 107.605308 61.375299 106.624489 60.353743 C 105.640536 59.307118 104.167741 58.783806 102.202969 58.783806 C 99.718019 58.783806 97.743847 59.557807 96.280453 61.105808 C 94.838993 62.650676 94.118264 64.280152 94.118264 65.994235 C 94.118264 67.35422 94.607107 68.576327 95.591059 69.660555 C 96.571878 70.725981 98.097945 71.261828 100.166125 71.261828 Z M 179.346102 73.831386 C 180.035495 72.806696 180.916039 72.440064 181.981465 72.734623 C 183.065693 73.026049 183.965038 73.599499 184.676367 74.458107 C 185.406497 75.313582 185.563178 76.17219 185.146408 77.027664 C 184.457014 78.491059 183.441726 80.527903 182.106809 83.141331 C 180.790695 85.751626 179.126749 88.531135 177.121241 91.476725 C 175.115733 94.425449 172.671519 97.22376 169.788601 99.877925 C 166.924484 102.53209 163.634197 104.694279 159.914606 106.367625 C 156.195015 108.037837 151.930176 108.87451 147.123223 108.87451 C 141.482731 108.87451 137.011074 107.68374 133.708252 105.302199 C 130.427366 102.898722 128.18057 99.859124 126.970998 96.180269 C 125.777093 92.482613 125.444931 88.625143 125.96511 84.614127 C 126.466487 80.581175 127.660391 76.986928 129.540555 73.831386 L 130.073268 73.047984 C 132.370202 69.973916 134.648334 66.620956 136.904531 62.985972 C 139.182663 59.347855 141.523468 55.922823 143.926944 52.704608 C 146.33042 49.486394 148.80597 46.832229 151.356726 44.742114 C 153.926283 42.651998 156.580448 41.608507 159.319221 41.608507 C 163.352173 41.608507 166.329099 42.548589 168.25 44.428753 C 170.174035 46.308917 171.092181 48.273688 171.010708 50.323067 C 171.010708 51.344623 170.559468 52.203231 169.663257 52.892625 C 168.763912 53.582018 167.685951 54.20874 166.432508 54.772789 C 165.201001 55.314903 164.113639 55.994896 163.173557 56.809633 C 162.233475 57.624371 161.763434 58.670996 161.763434 59.94324 C 161.763434 60.717241 162.358819 62.265243 163.54959 64.584112 C 164.762296 66.881046 166.047075 69.472538 167.403926 72.35859 C 168.782713 75.219573 169.73533 77.977147 170.258642 80.631312 C 172.22028 80.549839 173.903027 79.869846 175.303749 78.594468 C 176.726406 77.300288 178.073857 75.71155 179.346102 73.831386 Z M 142.516821 82.420602 C 145.337067 82.420602 147.521191 81.521257 149.069193 79.722566 C 150.614061 77.92701 151.388062 75.702149 151.388062 73.047984 C 151.388062 71.499982 151.146774 69.923778 150.667332 68.313104 C 150.184757 66.683628 149.476562 65.013416 148.53648 63.299333 C 147.677871 61.58525 146.653182 61.58525 145.462411 63.299333 C 143.832936 65.70281 142.100051 68.125088 140.260624 70.569301 C 138.421197 72.994713 136.779187 75.1475 135.337728 77.027664 C 135.337728 78.575666 135.995785 79.860445 137.315034 80.882001 C 138.64995 81.90669 140.385968 82.420602 142.516821 82.420602 Z M 154.082964 138.527832 C 150.990094 138.527832 148.586617 137.919912 146.872534 136.71034 C 145.161585 135.519569 143.967681 134.024839 143.300223 132.226148 C 142.610829 130.430592 142.288068 128.675772 142.328805 126.961689 C 142.369541 125.269541 142.601428 123.900155 143.018198 122.85353 C 143.54151 121.66276 144.249706 121.067375 145.149051 121.067375 C 146.048396 121.067375 146.496502 121.330597 146.496502 121.850776 C 146.496502 123.292235 147.167094 124.401532 148.505144 125.175533 C 149.821258 125.9464 151.294054 126.334968 152.923529 126.334968 C 154.637612 126.334968 156.204416 125.905663 157.623939 125.050189 C 159.024662 124.191581 159.72659 122.947539 159.72659 121.318063 C 159.72659 120.544062 159.494703 119.876604 159.037196 119.312555 C 158.554621 118.770441 157.843292 118.497817 156.90321 118.497817 C 155.775111 118.497817 154.813094 118.663898 154.020292 118.999194 C 153.205554 119.353292 152.494225 119.741859 151.889439 120.158629 C 151.115438 120.763415 150.363372 120.888759 149.633242 120.534661 C 148.899978 120.199365 148.492609 119.541308 148.411135 118.560489 C 148.326528 117.57967 148.755832 116.533045 149.695914 115.426882 L 162.797524 100.00327 L 168.438016 100.661327 L 158.817844 112.196134 L 159.068532 112.854191 C 161.03017 112.083324 163.13282 111.779364 165.367082 111.945445 C 167.582542 112.11466 169.484641 112.854191 171.07338 114.17344 C 172.658985 115.508356 173.454921 117.642342 173.454921 120.565997 C 173.454921 123.470851 172.712256 126.291097 171.23006 129.029869 C 169.725929 131.768642 167.51987 134.034239 164.615016 135.83293 C 161.688227 137.628486 158.178588 138.527832 154.082964 138.527832 Z M 184.363006 108.999855 C 181.373545 108.999855 179.064077 108.10051 177.434602 106.304953 C 175.805126 104.506263 174.990388 102.281402 174.990388 99.627237 C 174.990388 96.640909 175.335085 92.899383 176.024479 88.405791 C 176.713872 83.912199 177.779298 79.055108 179.220758 73.831386 C 180.684152 68.773744 182.291692 64.041998 184.049646 59.62988 C 185.804465 55.220895 187.600022 51.648583 189.439449 48.909811 C 191.278876 46.174172 193.011761 44.804786 194.64437 44.804786 C 196.35532 44.804786 197.483418 45.296762 198.028666 46.277581 C 198.592715 47.261533 198.874739 48.399033 198.874739 49.696346 C 198.874739 52.159361 199.470125 53.697962 200.660895 54.302748 C 201.873601 54.907534 203.503077 54.177404 205.552455 52.109223 C 207.952798 49.809156 210.431481 48.023 212.979104 46.747622 C 215.548661 45.453442 218.256097 44.804786 221.098279 44.804786 C 225.027822 44.804786 227.932675 45.96422 229.812839 48.283089 C 231.693003 50.583157 232.633085 53.362666 232.633085 56.621617 C 232.633085 58.837077 232.288389 60.864521 231.598995 62.703948 C 230.931537 64.543375 230.251544 66.338932 229.562151 68.093751 C 228.872757 69.848571 228.528061 71.803942 228.528061 73.95673 C 228.528061 78.24037 230.58684 80.380624 234.701266 80.380624 C 236.666037 80.380624 238.308047 79.766437 239.624162 78.531796 C 240.962212 77.278353 242.265793 75.71155 243.541171 73.831386 C 244.230564 72.806696 245.129909 72.440064 246.236073 72.734623 C 247.364171 73.026049 248.285451 73.599499 248.99678 74.458107 C 249.726911 75.313582 249.842854 76.17219 249.341477 77.027664 C 248.482869 78.406451 247.448778 80.402559 246.236073 83.015987 C 245.045302 85.60748 243.613244 88.383856 241.943031 91.351381 C 240.269685 94.300105 238.317448 97.120351 236.080053 99.815253 C 233.867727 102.510155 231.370242 104.716214 228.590733 106.430297 C 225.811223 108.14438 222.665082 108.999855 219.155443 108.999855 C 215.141292 108.999855 212.321046 107.674339 210.691571 105.020174 C 209.062095 102.366009 208.247357 99.241803 208.247357 95.647556 C 208.247357 92.388605 208.695463 89.283201 209.594808 86.33761 C 210.494153 83.39202 211.390365 80.693984 212.28971 78.249771 C 213.189055 75.805558 213.637161 73.724843 213.637161 72.013894 C 213.637161 70.569301 213.189055 69.463138 212.28971 68.689137 C 211.390365 67.91827 210.212129 67.529702 208.748734 67.529702 C 206.282586 67.529702 203.995053 68.585728 201.883002 70.694645 C 199.792886 72.784761 198.100739 75.501598 196.806559 78.845156 C 195.531181 82.169913 194.895059 85.76416 194.895059 89.627897 L 194.895059 95.396868 C 194.895059 97.52772 194.631836 99.649172 194.108523 101.758089 C 193.607146 103.848205 192.604392 105.584223 191.100261 106.96301 C 189.59613 108.319862 187.349334 108.999855 184.363006 108.999855 Z M 266.388298 39.540326 C 263.31423 39.540326 260.663198 38.882269 258.425803 37.56302 C 256.210343 36.228104 255.10418 33.843429 255.10418 30.418397 C 255.10418 25.884068 256.367023 22.778663 258.895844 21.108451 C 261.424665 19.435105 264.432927 18.601566 267.923765 18.601566 C 271.182716 18.601566 273.94029 19.331696 276.199621 20.79509 C 278.477753 22.258485 279.449171 24.994124 279.113875 29.008274 C 278.759778 32.956618 277.377857 35.704792 274.977514 37.24966 C 272.592839 38.775726 269.731856 39.540326 266.388298 39.540326 Z M 252.155456 108.999855 C 247.871815 108.999855 244.832217 107.442452 243.03666 104.330781 C 241.23797 101.19404 240.338625 97.402376 240.338625 92.952654 C 240.338625 89.963193 240.633184 86.798251 241.216035 83.454692 C 241.823954 80.111134 242.597955 76.90232 243.538037 73.831386 C 246.5463 64.490104 249.460554 57.323545 252.2808 52.328576 C 255.10418 47.311671 258.35373 44.804786 262.029451 44.804786 C 264.934304 44.804786 266.388298 46.72882 266.388298 50.573756 C 266.388298 53.143313 265.896322 55.775543 264.915503 58.470445 C 263.93155 61.16848 262.969533 63.822645 262.029451 66.43294 C 261.089369 69.046368 260.619328 71.512517 260.619328 73.831386 C 260.619328 75.962238 261.152041 77.560378 262.217467 78.625804 C 263.282894 79.69123 264.674215 80.223943 266.388298 80.223943 C 268.371871 80.223943 270.023282 79.628558 271.339397 78.437788 C 272.655512 77.247017 273.962226 75.71155 275.259539 73.831386 C 275.948932 72.806696 276.826342 72.421262 277.891769 72.671951 C 278.957195 72.92264 279.85654 73.49609 280.58667 74.395435 C 281.316801 75.29478 281.46408 76.128319 281.025375 76.90232 C 280.169901 78.281107 279.167147 80.255279 278.017113 82.827971 C 276.867079 85.375593 275.478891 88.155102 273.846282 91.163365 C 272.216807 94.152826 270.346043 96.995007 268.237126 99.689909 C 266.14701 102.384811 263.77487 104.612805 261.120705 106.367625 C 258.46654 108.122445 255.480213 108.999855 252.155456 108.999855 Z M 252.155456 108.999855 " stroke="#000624" stroke-width="6.5805" stroke-opacity="1" stroke-miterlimit="4"/><g fill="#ffba08" fill-opacity="1"><g transform="translate(11.804156, 224.398619)"><g><path d="M 92.671875 -43.859375 C 93.523438 -45.128906 94.617188 -45.578125 95.953125 -45.203125 C 97.285156 -44.835938 98.40625 -44.117188 99.3125 -43.046875 C 100.21875 -41.984375 100.40625 -40.921875 99.875 -39.859375 C 94.320312 -28.546875 88 -19.445312 80.90625 -12.5625 C 73.8125 -5.675781 65.625 -1.222656 56.34375 0.796875 L 53.609375 4 L 53.9375 4.796875 C 56.382812 3.835938 58.992188 3.460938 61.765625 3.671875 C 64.546875 3.890625 66.921875 4.828125 68.890625 6.484375 C 70.867188 8.140625 71.859375 10.78125 71.859375 14.40625 C 71.859375 18.03125 70.925781 21.550781 69.0625 24.96875 C 67.195312 28.382812 64.445312 31.210938 60.8125 33.453125 C 57.1875 35.691406 52.8125 36.8125 47.6875 36.8125 C 43.851562 36.8125 40.867188 36.0625 38.734375 34.5625 C 36.597656 33.070312 35.101562 31.207031 34.25 28.96875 C 33.394531 26.726562 32.992188 24.539062 33.046875 22.40625 C 33.097656 20.269531 33.394531 18.5625 33.9375 17.28125 C 34.570312 15.789062 35.445312 15.046875 36.5625 15.046875 C 37.6875 15.046875 38.25 15.363281 38.25 16 C 38.25 17.8125 39.078125 19.195312 40.734375 20.15625 C 42.390625 21.125 44.226562 21.609375 46.25 21.609375 C 48.382812 21.609375 50.332031 21.070312 52.09375 20 C 53.851562 18.9375 54.734375 17.390625 54.734375 15.359375 C 54.734375 14.398438 54.4375 13.570312 53.84375 12.875 C 53.257812 12.1875 52.382812 11.84375 51.21875 11.84375 C 49.832031 11.84375 48.628906 12.054688 47.609375 12.484375 C 46.597656 12.910156 45.71875 13.390625 44.96875 13.921875 C 44.007812 14.671875 43.078125 14.832031 42.171875 14.40625 C 41.265625 13.976562 40.753906 13.148438 40.640625 11.921875 C 40.535156 10.691406 41.070312 9.382812 42.25 8 L 47.53125 1.921875 L 44.96875 1.921875 C 37.394531 1.921875 30.617188 0.320312 24.640625 -2.875 C 18.671875 -6.082031 13.953125 -11.070312 10.484375 -17.84375 C 7.015625 -24.625 5.28125 -33.347656 5.28125 -44.015625 C 5.28125 -53.722656 6.957031 -62.976562 10.3125 -71.78125 C 13.675781 -80.582031 18.289062 -88.394531 24.15625 -95.21875 C 30.03125 -102.050781 36.726562 -107.441406 44.25 -111.390625 C 51.769531 -115.335938 59.640625 -117.3125 67.859375 -117.3125 C 77.992188 -117.3125 85.59375 -115.226562 90.65625 -111.0625 C 95.726562 -106.90625 98.265625 -101.359375 98.265625 -94.421875 C 98.265625 -89.734375 97.359375 -85.414062 95.546875 -81.46875 C 93.734375 -77.519531 91.359375 -74.078125 88.421875 -71.140625 C 85.492188 -68.203125 82.375 -65.929688 79.0625 -64.328125 C 75.757812 -62.734375 72.613281 -61.9375 69.625 -61.9375 C 67.382812 -61.9375 65.726562 -62.601562 64.65625 -63.9375 C 63.59375 -65.269531 63.488281 -66.789062 64.34375 -68.5 C 68.5 -76.394531 69.910156 -82.101562 68.578125 -85.625 C 67.242188 -89.144531 64.335938 -90.90625 59.859375 -90.90625 C 55.054688 -90.90625 50.707031 -89.410156 46.8125 -86.421875 C 42.914062 -83.429688 39.847656 -79.5625 37.609375 -74.8125 C 35.367188 -70.070312 34.25 -65.035156 34.25 -59.703125 C 34.25 -54.898438 35.394531 -50.523438 37.6875 -46.578125 C 39.976562 -42.628906 43.445312 -39.453125 48.09375 -37.046875 C 52.738281 -34.648438 58.582031 -33.453125 65.625 -33.453125 C 70.632812 -33.453125 75.726562 -34.195312 80.90625 -35.6875 C 86.082031 -37.1875 90.003906 -39.910156 92.671875 -43.859375 Z M 92.671875 -43.859375 "/></g></g></g><g fill="#ffba08" fill-opacity="1"><g transform="translate(100.779759, 224.398619)"><g><path d="M 30.09375 0 C 23.6875 0 18.425781 -1.4375 14.3125 -4.3125 C 10.207031 -7.195312 7.164062 -11.015625 5.1875 -15.765625 C 3.21875 -20.515625 2.257812 -25.742188 2.3125 -31.453125 C 2.375 -37.160156 3.363281 -42.867188 5.28125 -48.578125 C 7.195312 -54.285156 9.96875 -59.507812 13.59375 -64.25 C 17.226562 -69 21.628906 -72.8125 26.796875 -75.6875 C 31.972656 -78.570312 37.816406 -80.015625 44.328125 -80.015625 C 49.347656 -80.015625 53.429688 -79.082031 56.578125 -77.21875 C 59.722656 -75.351562 62.039062 -72.875 63.53125 -69.78125 C 65.03125 -66.6875 65.78125 -63.378906 65.78125 -59.859375 C 65.78125 -56.015625 64.710938 -52.171875 62.578125 -48.328125 C 60.441406 -44.492188 57.453125 -41.320312 53.609375 -38.8125 C 49.773438 -36.300781 45.242188 -35.046875 40.015625 -35.046875 C 37.773438 -35.046875 35.585938 -35.207031 33.453125 -35.53125 C 31.316406 -35.851562 29.34375 -36.546875 27.53125 -37.609375 C 27 -37.929688 26.410156 -37.957031 25.765625 -37.6875 C 25.128906 -37.425781 24.8125 -36.757812 24.8125 -35.6875 C 24.8125 -32.914062 26.4375 -30.804688 29.6875 -29.359375 C 32.9375 -27.921875 36.859375 -27.203125 41.453125 -27.203125 C 46.890625 -27.203125 52.515625 -28.585938 58.328125 -31.359375 C 64.148438 -34.140625 68.875 -38.304688 72.5 -43.859375 C 73.351562 -45.128906 74.472656 -45.578125 75.859375 -45.203125 C 77.242188 -44.835938 78.390625 -44.117188 79.296875 -43.046875 C 80.203125 -41.984375 80.335938 -40.921875 79.703125 -39.859375 C 72.660156 -26.835938 64.953125 -16.9375 56.578125 -10.15625 C 48.203125 -3.382812 39.375 0 30.09375 0 Z M 35.84375 -47.046875 C 38.9375 -47.046875 41.363281 -48.03125 43.125 -50 C 44.882812 -51.976562 45.765625 -53.984375 45.765625 -56.015625 C 45.765625 -57.828125 45.148438 -59.375 43.921875 -60.65625 C 42.703125 -61.9375 40.863281 -62.578125 38.40625 -62.578125 C 35.3125 -62.578125 32.859375 -61.613281 31.046875 -59.6875 C 29.234375 -57.769531 28.328125 -55.742188 28.328125 -53.609375 C 28.328125 -51.910156 28.941406 -50.390625 30.171875 -49.046875 C 31.398438 -47.710938 33.289062 -47.046875 35.84375 -47.046875 Z M 35.84375 -47.046875 "/></g></g></g><g fill="#ffba08" fill-opacity="1"><g transform="translate(169.591837, 224.398619)"><g><path d="M 65.78125 -43.859375 C 66.632812 -45.128906 67.726562 -45.578125 69.0625 -45.203125 C 70.394531 -44.835938 71.515625 -44.117188 72.421875 -43.046875 C 73.328125 -41.984375 73.515625 -40.921875 72.984375 -39.859375 C 72.128906 -38.035156 70.875 -35.5 69.21875 -32.25 C 67.5625 -29 65.476562 -25.53125 62.96875 -21.84375 C 60.46875 -18.164062 57.429688 -14.671875 53.859375 -11.359375 C 50.285156 -8.054688 46.175781 -5.363281 41.53125 -3.28125 C 36.882812 -1.195312 31.578125 -0.15625 25.609375 -0.15625 C 18.566406 -0.15625 12.988281 -1.648438 8.875 -4.640625 C 4.769531 -7.628906 1.96875 -11.414062 0.46875 -16 C -1.019531 -20.59375 -1.441406 -25.394531 -0.796875 -30.40625 C -0.160156 -35.425781 1.332031 -39.910156 3.6875 -43.859375 L 4.328125 -44.8125 C 7.203125 -48.65625 10.050781 -52.84375 12.875 -57.375 C 15.707031 -61.90625 18.617188 -66.171875 21.609375 -70.171875 C 24.597656 -74.179688 27.691406 -77.492188 30.890625 -80.109375 C 34.085938 -82.722656 37.394531 -84.03125 40.8125 -84.03125 C 45.820312 -84.03125 49.523438 -82.851562 51.921875 -80.5 C 54.328125 -78.15625 55.476562 -75.703125 55.375 -73.140625 C 55.375 -71.859375 54.8125 -70.789062 53.6875 -69.9375 C 52.570312 -69.082031 51.238281 -68.304688 49.6875 -67.609375 C 48.144531 -66.921875 46.785156 -66.066406 45.609375 -65.046875 C 44.441406 -64.035156 43.859375 -62.734375 43.859375 -61.140625 C 43.859375 -60.179688 44.601562 -58.257812 46.09375 -55.375 C 47.582031 -52.5 49.179688 -49.269531 50.890625 -45.6875 C 52.597656 -42.113281 53.773438 -38.675781 54.421875 -35.375 C 56.867188 -35.476562 58.972656 -36.328125 60.734375 -37.921875 C 62.492188 -39.523438 64.175781 -41.503906 65.78125 -43.859375 Z M 19.84375 -33.125 C 23.363281 -33.125 26.082031 -34.242188 28 -36.484375 C 29.925781 -38.734375 30.890625 -41.507812 30.890625 -44.8125 C 30.890625 -46.726562 30.59375 -48.703125 30 -50.734375 C 29.414062 -52.765625 28.539062 -54.847656 27.375 -56.984375 C 26.300781 -59.109375 25.019531 -59.109375 23.53125 -56.984375 C 21.5 -53.992188 19.335938 -50.976562 17.046875 -47.9375 C 14.753906 -44.894531 12.703125 -42.203125 10.890625 -39.859375 C 10.890625 -37.929688 11.710938 -36.328125 13.359375 -35.046875 C 15.015625 -33.765625 17.175781 -33.125 19.84375 -33.125 Z M 19.84375 -33.125 "/></g></g></g><g fill="#ffba08" fill-opacity="1"><g transform="translate(229.609357, 224.398619)"><g><path d="M -25.765625 36.8125 C -29.609375 36.8125 -32.597656 36.0625 -34.734375 34.5625 C -36.867188 33.070312 -38.359375 31.207031 -39.203125 28.96875 C -40.054688 26.726562 -40.457031 24.539062 -40.40625 22.40625 C -40.351562 20.269531 -40.0625 18.5625 -39.53125 17.28125 C -38.894531 15.789062 -38.015625 15.046875 -36.890625 15.046875 C -35.765625 15.046875 -35.203125 15.363281 -35.203125 16 C -35.203125 17.8125 -34.375 19.195312 -32.71875 20.15625 C -31.070312 21.125 -29.234375 21.609375 -27.203125 21.609375 C -25.066406 21.609375 -23.117188 21.070312 -21.359375 20 C -19.597656 18.9375 -18.71875 17.390625 -18.71875 15.359375 C -18.71875 14.398438 -19.007812 13.570312 -19.59375 12.875 C -20.1875 12.1875 -21.070312 11.84375 -22.25 11.84375 C -23.632812 11.84375 -24.832031 12.054688 -25.84375 12.484375 C -26.863281 12.910156 -27.742188 13.390625 -28.484375 13.921875 C -29.441406 14.671875 -30.375 14.832031 -31.28125 14.40625 C -32.195312 13.976562 -32.707031 13.148438 -32.8125 11.921875 C -32.914062 10.691406 -32.378906 9.382812 -31.203125 8 L -14.890625 -11.203125 L -7.84375 -10.40625 L -19.84375 4 L -19.53125 4.796875 C -17.070312 3.835938 -14.453125 3.460938 -11.671875 3.671875 C -8.898438 3.890625 -6.523438 4.828125 -4.546875 6.484375 C -2.578125 8.140625 -1.59375 10.78125 -1.59375 14.40625 C -1.59375 18.03125 -2.523438 21.550781 -4.390625 24.96875 C -6.265625 28.382812 -9.015625 31.210938 -12.640625 33.453125 C -16.265625 35.691406 -20.640625 36.8125 -25.765625 36.8125 Z M -25.765625 36.8125 "/></g></g></g><g fill="#ffba08" fill-opacity="1"><g transform="translate(231.522708, 224.398619)"><g><path d="M 10.078125 0 C 6.347656 0 3.46875 -1.117188 1.4375 -3.359375 C -0.582031 -5.597656 -1.59375 -8.375 -1.59375 -11.6875 C -1.59375 -15.414062 -1.164062 -20.082031 -0.3125 -25.6875 C 0.53125 -31.289062 1.863281 -37.347656 3.6875 -43.859375 C 5.5 -50.148438 7.5 -56.039062 9.6875 -61.53125 C 11.875 -67.03125 14.113281 -71.484375 16.40625 -74.890625 C 18.695312 -78.304688 20.859375 -80.015625 22.890625 -80.015625 C 25.023438 -80.015625 26.4375 -79.398438 27.125 -78.171875 C 27.820312 -76.953125 28.171875 -75.539062 28.171875 -73.9375 C 28.171875 -70.84375 28.914062 -68.921875 30.40625 -68.171875 C 31.90625 -67.429688 33.929688 -68.34375 36.484375 -70.90625 C 39.472656 -73.78125 42.566406 -76.015625 45.765625 -77.609375 C 48.972656 -79.210938 52.335938 -80.015625 55.859375 -80.015625 C 60.765625 -80.015625 64.390625 -78.570312 66.734375 -75.6875 C 69.085938 -72.8125 70.265625 -69.347656 70.265625 -65.296875 C 70.265625 -62.523438 69.835938 -59.988281 68.984375 -57.6875 C 68.128906 -55.394531 67.273438 -53.15625 66.421875 -50.96875 C 65.566406 -48.78125 65.140625 -46.351562 65.140625 -43.6875 C 65.140625 -38.351562 67.703125 -35.6875 72.828125 -35.6875 C 75.273438 -35.6875 77.328125 -36.457031 78.984375 -38 C 80.640625 -39.550781 82.265625 -41.503906 83.859375 -43.859375 C 84.710938 -45.128906 85.832031 -45.578125 87.21875 -45.203125 C 88.613281 -44.835938 89.765625 -44.117188 90.671875 -43.046875 C 91.578125 -41.984375 91.707031 -40.921875 91.0625 -39.859375 C 90 -38.148438 88.71875 -35.664062 87.21875 -32.40625 C 85.726562 -29.15625 83.941406 -25.6875 81.859375 -22 C 79.785156 -18.320312 77.359375 -14.800781 74.578125 -11.4375 C 71.804688 -8.082031 68.6875 -5.335938 65.21875 -3.203125 C 61.75 -1.066406 57.828125 0 53.453125 0 C 48.441406 0 44.921875 -1.648438 42.890625 -4.953125 C 40.867188 -8.265625 39.859375 -12.160156 39.859375 -16.640625 C 39.859375 -20.703125 40.414062 -24.570312 41.53125 -28.25 C 42.65625 -31.925781 43.773438 -35.285156 44.890625 -38.328125 C 46.015625 -41.367188 46.578125 -43.957031 46.578125 -46.09375 C 46.578125 -47.90625 46.015625 -49.289062 44.890625 -50.25 C 43.773438 -51.207031 42.304688 -51.6875 40.484375 -51.6875 C 37.390625 -51.6875 34.535156 -50.378906 31.921875 -47.765625 C 29.316406 -45.160156 27.210938 -41.773438 25.609375 -37.609375 C 24.003906 -33.453125 23.203125 -28.972656 23.203125 -24.171875 L 23.203125 -16.96875 C 23.203125 -14.300781 22.878906 -11.660156 22.234375 -9.046875 C 21.597656 -6.429688 20.347656 -4.269531 18.484375 -2.5625 C 16.617188 -0.851562 13.816406 0 10.078125 0 Z M 10.078125 0 "/></g></g></g><g fill="#ffba08" fill-opacity="1"><g transform="translate(311.696773, 224.398619)"><g><path d="M 32.171875 -86.578125 C 28.328125 -86.578125 25.015625 -87.40625 22.234375 -89.0625 C 19.460938 -90.71875 18.078125 -93.679688 18.078125 -97.953125 C 18.078125 -103.609375 19.648438 -107.472656 22.796875 -109.546875 C 25.953125 -111.628906 29.71875 -112.671875 34.09375 -112.671875 C 38.144531 -112.671875 41.582031 -111.765625 44.40625 -109.953125 C 47.238281 -108.140625 48.441406 -104.722656 48.015625 -99.703125 C 47.585938 -94.796875 45.878906 -91.378906 42.890625 -89.453125 C 39.898438 -87.535156 36.328125 -86.578125 32.171875 -86.578125 Z M 14.40625 0 C 9.070312 0 5.285156 -1.945312 3.046875 -5.84375 C 0.804688 -9.738281 -0.3125 -14.457031 -0.3125 -20 C -0.3125 -23.738281 0.0546875 -27.6875 0.796875 -31.84375 C 1.546875 -36.007812 2.507812 -40.015625 3.6875 -43.859375 C 7.414062 -55.484375 11.039062 -64.414062 14.5625 -70.65625 C 18.082031 -76.894531 22.140625 -80.015625 26.734375 -80.015625 C 30.359375 -80.015625 32.171875 -77.617188 32.171875 -72.828125 C 32.171875 -69.617188 31.554688 -66.332031 30.328125 -62.96875 C 29.097656 -59.613281 27.894531 -56.304688 26.71875 -53.046875 C 25.550781 -49.796875 24.96875 -46.734375 24.96875 -43.859375 C 24.96875 -41.191406 25.632812 -39.1875 26.96875 -37.84375 C 28.300781 -36.507812 30.035156 -35.84375 32.171875 -35.84375 C 34.617188 -35.84375 36.671875 -36.585938 38.328125 -38.078125 C 39.984375 -39.578125 41.613281 -41.503906 43.21875 -43.859375 C 44.070312 -45.128906 45.164062 -45.601562 46.5 -45.28125 C 47.832031 -44.96875 48.953125 -44.25 49.859375 -43.125 C 50.765625 -42.007812 50.953125 -40.972656 50.421875 -40.015625 C 49.347656 -38.304688 48.09375 -35.847656 46.65625 -32.640625 C 45.21875 -29.441406 43.484375 -25.972656 41.453125 -22.234375 C 39.421875 -18.503906 37.097656 -14.957031 34.484375 -11.59375 C 31.867188 -8.238281 28.90625 -5.46875 25.59375 -3.28125 C 22.289062 -1.09375 18.5625 0 14.40625 0 Z M 14.40625 0 "/></g></g></g></svg>